Normalized EMG Linear Envelopes
nRows=150
nColumns=4

endheader
time	 med_gas_r	  soleus_r	 tib_ant_r	
2.93448	  0.004541	  0.016459	  0.001274	
3.00605	  0.006353	  0.021479	  0.001343	
3.07762	  0.007128	  0.024679	  0.001392	
3.14919	  0.006801	  0.025318	  0.001413	
3.22077	  0.006102	  0.023820	  0.001412	
3.29234	  0.005748	  0.021640	  0.001399	
3.36391	  0.005937	  0.020424	  0.001375	
3.43548	  0.006332	  0.020571	  0.001342	
3.50706	  0.006474	  0.021170	  0.001312	
3.57863	  0.006347	  0.021383	  0.001284	
3.6502	  0.006337	  0.021384	  0.001260	
3.72177	  0.006604	  0.021817	  0.001251	
3.79335	  0.006856	  0.022791	  0.001270	
3.86492	  0.006821	  0.023967	  0.001320	
3.93649	  0.006625	  0.025089	  0.001382	
4.00806	  0.006528	  0.025864	  0.001413	
4.07964	  0.006593	  0.025757	  0.001393	
4.15121	  0.006794	  0.024491	  0.001357	
4.22278	  0.007076	  0.022625	  0.001346	
4.29435	  0.007295	  0.021157	  0.001373	
4.36593	  0.007467	  0.020717	  0.001427	
4.4375	  0.007802	  0.021323	  0.001480	
4.50907	  0.008214	  0.022379	  0.001503	
4.58065	  0.008296	  0.022926	  0.001491	
4.65222	  0.007875	  0.022484	  0.001464	
4.72379	  0.007201	  0.021344	  0.001440	
4.79536	  0.006676	  0.020017	  0.001425	
4.86694	  0.006496	  0.018872	  0.001428	
4.93851	  0.006550	  0.018080	  0.001461	
5.01008	  0.006750	  0.017722	  0.001515	
5.08165	  0.007011	  0.017953	  0.001558	
5.15323	  0.006674	  0.018731	  0.001537	
5.2248	  0.004394	  0.019371	  0.001391	
5.29637	 -0.000877	  0.018721	  0.001087	
5.36794	 -0.007279	  0.016463	  0.000733	
5.43952	 -0.006394	  0.014976	  0.000771	
5.51109	  0.018605	  0.020192	  0.002064	
5.58266	  0.085078	  0.039814	  0.005561	
5.65423	  0.186906	  0.075707	  0.011370	
5.72581	  0.286741	  0.116687	  0.017660	
5.79738	  0.355872	  0.149268	  0.021254	
5.86895	  0.402274	  0.174545	  0.020883	
5.94052	  0.440985	  0.202292	  0.018901	
6.0121	  0.471328	  0.235753	  0.018236	
6.08367	  0.494264	  0.269497	  0.019419	
6.15524	  0.521747	  0.296327	  0.021537	
6.22681	  0.560034	  0.316724	  0.023858	
6.29839	  0.597632	  0.335040	  0.025971	
6.36996	  0.619056	  0.346311	  0.028112	
6.44153	  0.625870	  0.346385	  0.031012	
6.5131	  0.630343	  0.345602	  0.033979	
6.58468	  0.628328	  0.351545	  0.034887	
6.65625	  0.600296	  0.355829	  0.033202	
6.72782	  0.548404	  0.349440	  0.030515	
6.7994	  0.507390	  0.335561	  0.028222	
6.87097	  0.503798	  0.323665	  0.026921	
6.94254	  0.526926	  0.318756	  0.026937	
7.01411	  0.550319	  0.319193	  0.028214	
7.08569	  0.562992	  0.322137	  0.030557	
7.15726	  0.571715	  0.328020	  0.033829	
7.22883	  0.581833	  0.341660	  0.037323	
7.3004	  0.587496	  0.366926	  0.040389	
7.37198	  0.583650	  0.395616	  0.043812	
7.44355	  0.578043	  0.410845	  0.047803	
7.51512	  0.584642	  0.407716	  0.050023	
7.58669	  0.601583	  0.396198	  0.049182	
7.65827	  0.604154	  0.382865	  0.047099	
7.72984	  0.576948	  0.369645	  0.044688	
7.80141	  0.538483	  0.366716	  0.040849	
7.87298	  0.514758	  0.383417	  0.035976	
7.94456	  0.507910	  0.411058	  0.032187	
8.01613	  0.507508	  0.435178	  0.030509	
8.0877	  0.513512	  0.452276	  0.030284	
8.15927	  0.529820	  0.460858	  0.030441	
8.23085	  0.550815	  0.456469	  0.030371	
8.30242	  0.568522	  0.443220	  0.030333	
8.37399	  0.579120	  0.436262	  0.030860	
8.44556	  0.580775	  0.446621	  0.031878	
8.51714	  0.578154	  0.465528	  0.033567	
8.58871	  0.580571	  0.473453	  0.036507	
8.66028	  0.588237	  0.466015	  0.039586	
8.73185	  0.592443	  0.458537	  0.040747	
8.80343	  0.592377	  0.464868	  0.040210	
8.875	  0.598719	  0.481336	  0.039656	
8.94657	  0.614853	  0.495070	  0.039422	
9.01815	  0.628794	  0.503562	  0.039136	
9.08972	  0.629732	  0.516848	  0.039066	
9.16129	  0.619622	  0.541551	  0.039211	
9.23286	  0.608618	  0.570948	  0.039179	
9.30444	  0.607480	  0.593587	  0.039626	
9.37601	  0.619642	  0.607976	  0.041631	
9.44758	  0.634597	  0.618010	  0.044782	
9.51915	  0.637394	  0.620922	  0.047600	
9.59073	  0.631007	  0.617550	  0.049096	
9.6623	  0.636748	  0.617355	  0.048980	
9.73387	  0.666757	  0.619019	  0.047383	
9.80544	  0.701509	  0.609808	  0.045084	
9.87702	  0.703605	  0.590518	  0.043132	
9.94859	  0.666288	  0.577803	  0.041916	
10.0202	  0.626126	  0.577161	  0.040998	
10.0917	  0.614024	  0.576726	  0.039763	
10.1633	  0.629986	  0.572010	  0.038298	
10.2349	  0.660563	  0.570454	  0.037664	
10.3065	  0.689577	  0.572743	  0.038805	
10.378	  0.705690	  0.572029	  0.041198	
10.4496	  0.707166	  0.564699	  0.043164	
10.5212	  0.695992	  0.557130	  0.043482	
10.5927	  0.677496	  0.564636	  0.042410	
10.6643	  0.659571	  0.590483	  0.041318	
10.7359	  0.646847	  0.617149	  0.041364	
10.8075	  0.643202	  0.629457	  0.042534	
10.879	  0.649135	  0.623131	  0.043986	
10.9506	  0.652020	  0.594663	  0.044770	
11.0222	  0.634800	  0.543143	  0.043987	
11.0937	  0.590883	  0.472051	  0.041078	
11.1653	  0.525344	  0.388706	  0.036364	
11.2369	  0.454177	  0.311697	  0.031081	
11.3085	  0.398244	  0.263630	  0.026623	
11.38	  0.364866	  0.249435	  0.023467	
11.4516	  0.340980	  0.253283	  0.021038	
11.5232	  0.311128	  0.254016	  0.018914	
11.5948	  0.274917	  0.239260	  0.017467	
11.6663	  0.241731	  0.210101	  0.017088	
11.7379	  0.215565	  0.175426	  0.017334	
11.8095	  0.190413	  0.143663	  0.017200	
11.881	  0.158044	  0.117701	  0.016372	
11.9526	  0.117862	  0.094263	  0.015432	
12.0242	  0.077695	  0.069833	  0.014922	
12.0958	  0.045906	  0.047112	  0.016626	
12.1673	  0.025695	  0.032654	  0.024613	
12.2389	  0.015803	  0.029192	  0.040609	
12.3105	  0.012956	  0.033523	  0.059334	
12.3821	  0.013619	  0.040681	  0.072712	
12.4536	  0.015370	  0.047560	  0.078290	
12.5252	  0.017121	  0.052730	  0.080539	
12.5968	  0.018298	  0.054527	  0.084245	
12.6683	  0.018338	  0.051728	  0.088330	
12.7399	  0.016968	  0.045533	  0.086449	
12.8115	  0.014587	  0.038161	  0.074335	
12.8831	  0.012059	  0.030730	  0.055602	
12.9546	  0.010141	  0.024057	  0.037954	
13.0262	  0.009100	  0.019560	  0.025876	
13.0978	  0.008888	  0.018493	  0.020108	
13.1694	  0.009452	  0.021174	  0.020843	
13.2409	  0.010535	  0.026802	  0.026823	
13.3125	  0.011426	  0.033217	  0.033507	
13.3841	  0.011405	  0.037101	  0.035990	
13.4556	  0.010345	  0.036037	  0.032812	
13.5272	  0.008650	  0.030657	  0.025504	
13.5988	  0.006748	  0.023442	  0.016273	
